<?xml version="1.0" encoding="utf-8"?>
<!-- Generator: Adobe Illustrator 17.0.0, SVG Export Plug-In . SVG Version: 6.00 Build 0)  -->
<!DOCTYPE svg PUBLIC "-//W3C//DTD SVG 1.1//EN" "http://www.w3.org/Graphics/SVG/1.1/DTD/svg11.dtd">
<svg version="1.1" id="Layer_1" xmlns="http://www.w3.org/2000/svg" xmlns:xlink="http://www.w3.org/1999/xlink" x="0px" y="0px"
	 width="103.188px" height="156.667px" viewBox="0 0 103.188 156.667" enable-background="new 0 0 103.188 156.667"
	 xml:space="preserve">
<polygon fill="none" stroke="#000000" stroke-miterlimit="10" points="45.5,87.833 45.5,102.833 35.5,102.833 35.5,97.833 
	15.5,97.833 15.5,102.833 0.5,102.833 0.5,87.833 5.5,87.833 5.5,67.833 0.5,67.833 0.5,52.833 15.5,52.833 15.5,57.833 
	35.5,57.833 35.5,52.833 45.5,52.833 45.5,67.833 50.5,67.833 50.5,87.833 "/>
<polygon fill="none" stroke="#000000" stroke-miterlimit="10" points="5.5,45.5 15.5,45.5 15.5,50.5 35.5,50.5 35.5,45.5 45.5,45.5 
	45.5,35.5 50.5,35.5 50.5,15.5 45.5,15.5 45.5,5.5 35.5,5.5 35.5,0.5 15.5,0.5 15.5,5.5 5.5,5.5 5.5,15.5 0.5,15.5 0.5,35.5 
	5.5,35.5 "/>
<polygon fill="none" stroke="#000000" stroke-miterlimit="10" points="45.5,141.167 45.5,156.167 35.5,156.167 35.5,151.167 
	15.5,151.167 15.5,156.167 0.5,156.167 0.5,141.167 5.5,141.167 5.5,121.167 0.5,121.167 0.5,106.167 15.5,106.167 15.5,111.167 
	35.5,111.167 35.5,106.167 45.5,106.167 45.5,121.167 50.5,121.167 50.5,141.167 "/>
<polygon fill="none" stroke="#000000" stroke-miterlimit="10" points="97.688,141.167 97.688,156.167 87.688,156.167 
	87.688,151.167 67.688,151.167 67.688,156.167 52.688,156.167 52.688,141.167 57.688,141.167 57.688,121.167 52.688,121.167 
	52.688,106.167 67.688,106.167 67.688,111.167 87.688,111.167 87.688,106.167 97.688,106.167 97.688,121.167 102.688,121.167 
	102.688,141.167 "/>
<polygon fill="none" stroke="#000000" stroke-miterlimit="10" points="97.688,87.833 97.688,102.833 87.688,102.833 87.688,97.833 
	67.688,97.833 67.688,102.833 52.688,102.833 52.688,87.833 57.688,87.833 57.688,67.833 52.688,67.833 52.688,52.833 
	67.688,52.833 67.688,57.833 87.688,57.833 87.688,52.833 97.688,52.833 97.688,67.833 102.688,67.833 102.688,87.833 "/>
<polygon fill="none" stroke="#000000" stroke-miterlimit="10" points="57.688,45.5 67.688,45.5 67.688,50.5 87.687,50.5 
	87.688,45.5 97.688,45.5 97.688,35.5 102.688,35.5 102.688,15.5 97.688,15.5 97.688,5.5 87.688,5.5 87.688,0.5 67.688,0.5 
	67.688,5.5 57.688,5.5 57.688,15.5 52.688,15.5 52.688,35.5 57.688,35.5 "/>
</svg>
