<svg xmlns="http://www.w3.org/2000/svg" version="1.1" width="100%" height="100%" viewBox="0 0 1037.0 665.0">
<polygon fill="none" stroke="#000000" stroke-width="1" points="399.0,579.0 398.0,580.0 398.0,582.0 397.0,583.0 397.0,585.0 395.0,587.0 395.0,589.0 394.0,590.0 394.0,592.0 393.0,593.0 393.0,594.0 394.0,594.0 395.0,595.0 396.0,594.0 396.0,593.0 397.0,592.0 397.0,590.0 398.0,589.0 398.0,588.0 399.0,587.0 399.0,586.0 400.0,585.0 400.0,583.0 401.0,582.0 401.0,580.0 400.0,579.0 " />
<polygon fill="none" stroke="#000000" stroke-width="1" points="558.0,403.0 558.0,412.0 557.0,413.0 557.0,415.0 558.0,416.0 558.0,470.0 559.0,471.0 559.0,493.0 558.0,494.0 558.0,495.0 557.0,496.0 555.0,496.0 554.0,497.0 553.0,497.0 552.0,498.0 551.0,498.0 547.0,502.0 547.0,503.0 546.0,504.0 546.0,505.0 545.0,506.0 545.0,508.0 544.0,509.0 544.0,511.0 543.0,512.0 543.0,541.0 544.0,542.0 544.0,545.0 545.0,546.0 545.0,547.0 548.0,550.0 550.0,550.0 551.0,551.0 559.0,551.0 561.0,553.0 567.0,553.0 569.0,555.0 569.0,556.0 570.0,557.0 570.0,578.0 571.0,579.0 571.0,581.0 574.0,584.0 581.0,584.0 584.0,581.0 584.0,580.0 585.0,579.0 585.0,575.0 586.0,574.0 586.0,564.0 585.0,563.0 585.0,552.0 587.0,550.0 593.0,550.0 596.0,547.0 596.0,546.0 597.0,545.0 597.0,542.0 598.0,541.0 598.0,517.0 597.0,516.0 597.0,511.0 596.0,510.0 596.0,508.0 595.0,507.0 595.0,505.0 594.0,504.0 594.0,503.0 588.0,497.0 586.0,497.0 585.0,496.0 583.0,496.0 580.0,493.0 580.0,459.0 579.0,458.0 579.0,415.0 578.0,414.0 578.0,403.0 " />
<polygon fill="none" stroke="#000000" stroke-width="1" points="561.0,277.0 559.0,279.0 552.0,279.0 552.0,280.0 551.0,281.0 551.0,282.0 550.0,283.0 544.0,283.0 543.0,284.0 543.0,288.0 542.0,289.0 539.0,289.0 538.0,290.0 537.0,290.0 537.0,296.0 536.0,297.0 534.0,297.0 533.0,298.0 533.0,305.0 532.0,306.0 532.0,310.0 533.0,311.0 533.0,318.0 534.0,319.0 536.0,319.0 537.0,320.0 537.0,326.0 538.0,327.0 541.0,327.0 542.0,328.0 543.0,328.0 544.0,329.0 544.0,333.0 545.0,334.0 545.0,335.0 546.0,336.0 546.0,337.0 549.0,340.0 550.0,339.0 553.0,339.0 554.0,338.0 560.0,338.0 561.0,339.0 561.0,340.0 564.0,340.0 565.0,339.0 574.0,339.0 575.0,338.0 575.0,334.0 576.0,333.0 582.0,333.0 583.0,332.0 583.0,328.0 584.0,327.0 588.0,327.0 589.0,326.0 589.0,320.0 590.0,319.0 596.0,319.0 598.0,321.0 600.0,321.0 603.0,318.0 609.0,318.0 610.0,317.0 610.0,311.0 611.0,310.0 613.0,310.0 614.0,309.0 614.0,306.0 613.0,306.0 612.0,305.0 611.0,305.0 610.0,304.0 610.0,298.0 609.0,298.0 608.0,297.0 602.0,297.0 600.0,295.0 598.0,295.0 596.0,297.0 589.0,297.0 588.0,296.0 588.0,290.0 587.0,289.0 583.0,289.0 581.0,287.0 581.0,283.0 580.0,282.0 574.0,282.0 573.0,281.0 573.0,279.0 565.0,279.0 564.0,278.0 564.0,277.0 " />
<polygon fill="none" stroke="#000000" stroke-width="1" points="457.0,256.0 454.0,259.0 435.0,259.0 433.0,257.0 418.0,257.0 416.0,259.0 415.0,259.0 414.0,260.0 403.0,260.0 400.0,257.0 386.0,257.0 383.0,260.0 364.0,260.0 362.0,258.0 344.0,258.0 344.0,277.0 343.0,278.0 343.0,280.0 341.0,282.0 341.0,299.0 340.0,300.0 322.0,300.0 319.0,297.0 306.0,297.0 305.0,298.0 298.0,298.0 296.0,300.0 283.0,300.0 281.0,298.0 266.0,298.0 263.0,301.0 251.0,301.0 248.0,298.0 232.0,298.0 231.0,299.0 227.0,299.0 227.0,300.0 226.0,301.0 209.0,301.0 208.0,302.0 202.0,302.0 201.0,301.0 185.0,301.0 183.0,299.0 163.0,299.0 160.0,302.0 148.0,302.0 146.0,300.0 144.0,300.0 143.0,299.0 142.0,300.0 129.0,300.0 129.0,301.0 128.0,302.0 115.0,302.0 113.0,300.0 92.0,300.0 89.0,303.0 72.0,303.0 72.0,319.0 71.0,320.0 71.0,321.0 69.0,323.0 69.0,342.0 70.0,343.0 70.0,344.0 72.0,346.0 72.0,358.0 69.0,361.0 69.0,375.0 72.0,378.0 72.0,390.0 69.0,393.0 69.0,413.0 71.0,415.0 71.0,427.0 72.0,428.0 72.0,434.0 69.0,437.0 69.0,459.0 71.0,461.0 71.0,482.0 69.0,484.0 69.0,499.0 71.0,501.0 71.0,515.0 69.0,517.0 69.0,533.0 70.0,533.0 71.0,534.0 71.0,537.0 72.0,538.0 72.0,548.0 69.0,551.0 69.0,566.0 71.0,568.0 71.0,570.0 72.0,571.0 72.0,589.0 70.0,591.0 70.0,592.0 69.0,593.0 69.0,614.0 70.0,615.0 72.0,615.0 73.0,616.0 90.0,616.0 91.0,615.0 92.0,615.0 92.0,614.0 93.0,613.0 112.0,613.0 114.0,615.0 130.0,615.0 131.0,614.0 131.0,613.0 132.0,612.0 145.0,612.0 147.0,614.0 154.0,614.0 155.0,615.0 156.0,615.0 157.0,614.0 163.0,614.0 165.0,612.0 184.0,612.0 186.0,614.0 229.0,614.0 232.0,611.0 250.0,611.0 252.0,613.0 257.0,613.0 258.0,614.0 266.0,614.0 267.0,613.0 268.0,613.0 270.0,611.0 283.0,611.0 285.0,613.0 292.0,613.0 293.0,614.0 299.0,614.0 300.0,613.0 301.0,613.0 303.0,611.0 322.0,611.0 323.0,612.0 323.0,613.0 367.0,613.0 369.0,611.0 372.0,611.0 373.0,610.0 387.0,610.0 390.0,613.0 405.0,613.0 407.0,611.0 412.0,611.0 413.0,610.0 420.0,610.0 423.0,613.0 438.0,613.0 441.0,610.0 459.0,610.0 461.0,612.0 462.0,612.0 463.0,613.0 479.0,613.0 480.0,612.0 480.0,591.0 481.0,590.0 481.0,589.0 483.0,587.0 483.0,572.0 482.0,571.0 482.0,564.0 481.0,564.0 480.0,563.0 480.0,549.0 482.0,547.0 482.0,532.0 480.0,530.0 480.0,529.0 479.0,528.0 479.0,516.0 481.0,514.0 481.0,510.0 482.0,509.0 482.0,507.0 481.0,506.0 481.0,498.0 479.0,496.0 479.0,482.0 481.0,480.0 481.0,458.0 478.0,455.0 478.0,423.0 477.0,422.0 477.0,412.0 479.0,410.0 479.0,409.0 480.0,408.0 480.0,395.0 479.0,394.0 479.0,386.0 477.0,384.0 477.0,370.0 479.0,368.0 479.0,353.0 477.0,351.0 477.0,346.0 476.0,345.0 476.0,338.0 478.0,336.0 478.0,335.0 479.0,334.0 479.0,331.0 478.0,330.0 478.0,320.0 476.0,318.0 476.0,305.0 478.0,303.0 478.0,281.0 477.0,280.0 477.0,279.0 475.0,277.0 475.0,257.0 474.0,256.0 " />
<polygon fill="none" stroke="#000000" stroke-width="1" points="193.0,59.0 192.0,60.0 89.0,60.0 88.0,61.0 30.0,61.0 29.0,62.0 28.0,62.0 26.0,64.0 26.0,165.0 27.0,166.0 27.0,187.0 28.0,188.0 28.0,189.0 30.0,189.0 31.0,190.0 85.0,190.0 86.0,189.0 134.0,189.0 135.0,188.0 197.0,188.0 198.0,187.0 218.0,187.0 219.0,186.0 220.0,186.0 222.0,184.0 222.0,182.0 223.0,181.0 223.0,169.0 222.0,168.0 222.0,74.0 221.0,73.0 221.0,63.0 220.0,62.0 220.0,60.0 219.0,60.0 218.0,59.0 " />
<polygon fill="none" stroke="#000000" stroke-width="1" points="979.0,52.0 978.0,53.0 942.0,53.0 941.0,54.0 892.0,54.0 891.0,55.0 849.0,55.0 848.0,56.0 816.0,56.0 815.0,57.0 780.0,57.0 779.0,58.0 738.0,58.0 737.0,59.0 671.0,59.0 670.0,60.0 658.0,60.0 657.0,59.0 631.0,59.0 630.0,60.0 580.0,60.0 579.0,61.0 578.0,61.0 578.0,87.0 579.0,88.0 579.0,95.0 578.0,96.0 578.0,100.0 579.0,101.0 579.0,148.0 580.0,149.0 580.0,157.0 579.0,158.0 579.0,161.0 580.0,162.0 580.0,181.0 587.0,181.0 588.0,182.0 588.0,189.0 640.0,189.0 641.0,190.0 642.0,190.0 643.0,189.0 660.0,189.0 661.0,190.0 668.0,190.0 669.0,189.0 689.0,189.0 690.0,190.0 692.0,190.0 693.0,189.0 712.0,189.0 713.0,190.0 716.0,190.0 717.0,189.0 726.0,189.0 727.0,188.0 807.0,188.0 808.0,187.0 870.0,187.0 871.0,186.0 889.0,186.0 890.0,187.0 895.0,187.0 896.0,186.0 922.0,186.0 923.0,187.0 924.0,186.0 934.0,186.0 935.0,185.0 981.0,185.0 982.0,184.0 996.0,184.0 996.0,183.0 997.0,182.0 997.0,172.0 996.0,171.0 996.0,137.0 995.0,136.0 995.0,100.0 994.0,99.0 994.0,61.0 993.0,60.0 986.0,60.0 985.0,59.0 985.0,52.0 " />
<polygon fill="none" stroke="#000000" stroke-width="1" points="1012.0,34.0 1011.0,35.0 979.0,35.0 978.0,36.0 944.0,36.0 943.0,37.0 910.0,37.0 909.0,38.0 873.0,38.0 872.0,39.0 844.0,39.0 843.0,40.0 824.0,40.0 822.0,38.0 821.0,39.0 819.0,39.0 818.0,40.0 800.0,40.0 799.0,41.0 785.0,41.0 784.0,40.0 783.0,40.0 782.0,41.0 753.0,41.0 752.0,40.0 751.0,41.0 745.0,41.0 744.0,42.0 737.0,42.0 736.0,41.0 722.0,41.0 721.0,42.0 704.0,42.0 703.0,41.0 702.0,42.0 680.0,42.0 679.0,43.0 659.0,43.0 658.0,42.0 657.0,43.0 618.0,43.0 617.0,44.0 582.0,44.0 581.0,45.0 569.0,45.0 568.0,44.0 563.0,44.0 562.0,45.0 539.0,45.0 538.0,44.0 535.0,44.0 534.0,45.0 485.0,45.0 484.0,46.0 439.0,46.0 438.0,47.0 426.0,47.0 425.0,46.0 422.0,46.0 421.0,47.0 415.0,47.0 414.0,46.0 394.0,46.0 393.0,47.0 383.0,47.0 382.0,46.0 379.0,46.0 378.0,47.0 351.0,47.0 350.0,48.0 301.0,48.0 300.0,49.0 245.0,49.0 244.0,50.0 238.0,50.0 237.0,49.0 218.0,49.0 217.0,50.0 208.0,50.0 207.0,49.0 201.0,49.0 200.0,50.0 176.0,50.0 175.0,51.0 114.0,51.0 113.0,50.0 104.0,50.0 103.0,51.0 93.0,51.0 92.0,50.0 83.0,50.0 82.0,51.0 19.0,51.0 17.0,53.0 17.0,128.0 18.0,129.0 18.0,187.0 17.0,188.0 17.0,189.0 18.0,190.0 18.0,635.0 19.0,636.0 19.0,640.0 20.0,640.0 21.0,641.0 36.0,641.0 37.0,642.0 37.0,647.0 40.0,647.0 40.0,642.0 41.0,641.0 111.0,641.0 112.0,642.0 112.0,646.0 126.0,646.0 127.0,645.0 140.0,645.0 141.0,646.0 151.0,646.0 152.0,645.0 210.0,645.0 211.0,646.0 215.0,646.0 216.0,645.0 217.0,645.0 218.0,644.0 225.0,644.0 226.0,645.0 231.0,645.0 232.0,644.0 238.0,644.0 239.0,645.0 248.0,645.0 249.0,644.0 257.0,644.0 258.0,645.0 277.0,645.0 278.0,644.0 290.0,644.0 291.0,645.0 316.0,645.0 317.0,644.0 324.0,644.0 325.0,645.0 331.0,645.0 332.0,644.0 339.0,644.0 340.0,645.0 365.0,645.0 366.0,644.0 383.0,644.0 384.0,645.0 390.0,645.0 391.0,644.0 397.0,644.0 398.0,645.0 401.0,645.0 402.0,644.0 409.0,644.0 410.0,645.0 413.0,645.0 414.0,644.0 425.0,644.0 426.0,645.0 440.0,645.0 441.0,644.0 489.0,644.0 490.0,645.0 491.0,644.0 614.0,644.0 615.0,643.0 623.0,643.0 624.0,644.0 633.0,644.0 634.0,643.0 662.0,643.0 663.0,644.0 664.0,644.0 665.0,643.0 679.0,643.0 680.0,644.0 683.0,644.0 684.0,643.0 698.0,643.0 699.0,644.0 700.0,644.0 701.0,643.0 709.0,643.0 710.0,644.0 834.0,644.0 835.0,645.0 844.0,645.0 845.0,644.0 854.0,644.0 855.0,645.0 934.0,645.0 935.0,646.0 936.0,646.0 937.0,645.0 951.0,645.0 952.0,646.0 959.0,646.0 960.0,647.0 961.0,646.0 962.0,646.0 963.0,645.0 974.0,645.0 975.0,646.0 975.0,649.0 976.0,650.0 980.0,650.0 981.0,649.0 983.0,649.0 983.0,648.0 985.0,646.0 991.0,646.0 992.0,647.0 992.0,655.0 990.0,657.0 990.0,659.0 989.0,660.0 989.0,661.0 988.0,662.0 988.0,663.0 990.0,665.0 996.0,665.0 997.0,664.0 998.0,664.0 998.0,663.0 999.0,662.0 999.0,660.0 1000.0,659.0 1000.0,658.0 1001.0,657.0 1001.0,655.0 1002.0,654.0 1001.0,653.0 1001.0,647.0 1002.0,646.0 1013.0,646.0 1014.0,645.0 1020.0,645.0 1021.0,646.0 1024.0,646.0 1025.0,645.0 1033.0,645.0 1034.0,644.0 1034.0,642.0 1036.0,640.0 1036.0,639.0 1037.0,638.0 1037.0,621.0 1036.0,620.0 1036.0,578.0 1035.0,577.0 1035.0,536.0 1034.0,535.0 1034.0,501.0 1033.0,500.0 1033.0,469.0 1032.0,468.0 1032.0,437.0 1031.0,436.0 1031.0,404.0 1030.0,403.0 1030.0,386.0 1029.0,385.0 1029.0,359.0 1028.0,358.0 1028.0,330.0 1027.0,329.0 1027.0,303.0 1026.0,302.0 1026.0,277.0 1025.0,276.0 1025.0,245.0 1024.0,244.0 1024.0,209.0 1023.0,208.0 1023.0,190.0 1022.0,189.0 1022.0,149.0 1021.0,148.0 1021.0,116.0 1020.0,115.0 1020.0,76.0 1019.0,75.0 1019.0,49.0 1018.0,48.0 1018.0,35.0 1015.0,35.0 1014.0,34.0 " />
</svg>