<?xml version="1.0" encoding="iso-8859-1"?>
<!-- Generator: Adobe Illustrator 16.0.3, SVG Export Plug-In . SVG Version: 6.00 Build 0)  -->
<!DOCTYPE svg PUBLIC "-//W3C//DTD SVG 1.1//EN" "http://www.w3.org/Graphics/SVG/1.1/DTD/svg11.dtd">
<svg version="1.1" id="Layer_1" xmlns="http://www.w3.org/2000/svg" xmlns:xlink="http://www.w3.org/1999/xlink" x="0px" y="0px"
	 width="51px" height="51px" viewBox="0 0 51 51" style="enable-background:new 0 0 51 51;" xml:space="preserve">
<polygon style="fill:none;stroke:#000000;stroke-miterlimit:10;" points="50.5,8 50.5,3 48,3 48,0.5 43,0.5 43,3 38,3 38,0.5 
	33,0.5 33,3 28,3 28,0.5 23,0.5 23,3 18,3 18,0.5 13,0.5 13,3 8,3 8,0.5 3,0.5 3,3 0.5,3 0.5,8 3,8 3,13 0.5,13 0.5,18 3,18 3,23 
	0.5,23 0.5,28 3,28 3,33 0.5,33 0.5,38 3,38 3,43 0.5,43 0.5,48 3,48 3,50.5 8,50.5 8,48 13,48 13,50.5 18,50.5 18,48 23,48 
	23,50.5 28,50.5 28,48 33,48 33,50.5 38,50.5 38,48 43,48 43,50.5 48,50.5 48,48 50.5,48 50.5,43 48,43 48,38 50.5,38 50.5,33 
	48,33 48,28 50.5,28 50.5,23 48,23 48,18 50.5,18 50.5,13 48,13 48,8 "/>
</svg>
