<?xml version="1.0" encoding="iso-8859-1"?>
<!-- Generator: Adobe Illustrator 16.0.3, SVG Export Plug-In . SVG Version: 6.00 Build 0)  -->
<!DOCTYPE svg PUBLIC "-//W3C//DTD SVG 1.1//EN" "http://www.w3.org/Graphics/SVG/1.1/DTD/svg11.dtd">
<svg version="1.1" id="Layer_1" xmlns="http://www.w3.org/2000/svg" xmlns:xlink="http://www.w3.org/1999/xlink" x="0px" y="0px"
	 width="301px" height="101px" viewBox="0 0 301 101" style="enable-background:new 0 0 301 101;" xml:space="preserve">
<polygon style="fill:none;stroke:#000000;stroke-miterlimit:10;" points="275.5,75.5 275.5,25.5 300.5,25.5 300.5,0.5 0.5,0.5 
	0.5,25.5 25.5,25.5 25.5,75.5 0.5,75.5 0.5,100.5 300.5,100.5 300.5,75.5 "/>
<polygon style="fill:none;stroke:#000000;stroke-miterlimit:10;" points="150.5,68.365 132.866,77.635 136.234,58 121.968,44.094 
	141.683,41.23 150.5,23.365 159.316,41.23 179.031,44.094 164.766,58 168.134,77.635 "/>
<polygon style="fill:none;stroke:#000000;stroke-miterlimit:10;" points="67.753,68.365 50.119,77.635 53.487,58 39.222,44.094 
	58.936,41.23 67.753,23.365 76.57,41.23 96.285,44.094 82.019,58 85.387,77.635 "/>
<polygon style="fill:none;stroke:#000000;stroke-miterlimit:10;" points="232.563,68.365 214.929,77.635 218.297,58 204.031,44.094 
	223.746,41.23 232.563,23.365 241.379,41.23 261.094,44.094 246.828,58 250.197,77.635 "/>
</svg>
